<?xml version="1.0" encoding="UTF-8"?>
<svg width="24px" height="24px" viewBox="0 0 24 24" version="1.1" xmlns="http://www.w3.org/2000/svg" xmlns:xlink="http://www.w3.org/1999/xlink">
    <!-- Generator: Sketch 47 (45396) - http://www.bohemiancoding.com/sketch -->
    <title>Fill 3</title>
    <desc>Created with Sketch.</desc>
    <defs></defs>
    <g id="Page-1" stroke="none" stroke-width="1" fill="none" fill-rule="evenodd">
        <g id="Paquetes" transform="translate(-102.000000, -515.000000)" fill="#573312">
            <g transform="translate(-251.000000, 120.000000)" id="Paquete-Grupo-1">
                <g transform="translate(334.000000, 76.000000)">
                    <g id="Paquete-uno">
                        <g id="TEXTO" transform="translate(17.000000, 235.000000)">
                            <g id="Precio" transform="translate(2.000000, 84.000000)">
                                <path d="M21.2421817,0 L13.7958999,0 C13.0515475,0 12.3620929,0.27736894 11.8655994,0.804708075 L0.806661855,11.8751883 C-0.268887285,12.9572653 -0.268887285,14.7053226 0.806661855,15.7870528 L8.19778728,23.1952919 C8.7216004,23.7226311 9.41105497,24 10.1557521,24 C10.900363,24 11.5898176,23.7226311 12.1137169,23.1952919 L23.1725683,12.0692339 C23.6967262,11.5699871 24,10.876348 24,10.1549633 L24,2.77455645 C24,1.24837699 22.7588094,0 21.2421817,0 Z M22.8968727,10.1549633 C22.8968727,10.5712335 22.7315759,10.9871568 22.4006377,11.2648726 L11.314122,22.4183294 C11.0108481,22.7234439 10.5970892,22.8900907 10.1557521,22.8900907 C9.71441499,22.8900907 9.30100079,22.7234439 8.99729605,22.4183294 L1.57893716,15.0104371 C0.944725134,14.3723758 0.944725134,13.3180444 1.57893716,12.6521508 L12.6378748,1.58132377 C12.9411486,1.27620926 13.3549075,1.10990929 13.7958999,1.10990929 L21.2421817,1.10990929 C22.1521756,1.10990929 22.8968727,1.85903953 22.8968727,2.77455645 L22.8968727,10.1549633 Z" id="Fill-3"></path>
                            </g>
                        </g>
                    </g>
                </g>
            </g>
        </g>
    </g>
</svg>