<?xml version="1.0" encoding="UTF-8"?>
<svg width="23px" height="27px" viewBox="0 0 23 27" version="1.1" xmlns="http://www.w3.org/2000/svg" xmlns:xlink="http://www.w3.org/1999/xlink">
    <!-- Generator: Sketch 47 (45396) - http://www.bohemiancoding.com/sketch -->
    <title>Group 2</title>
    <desc>Created with Sketch.</desc>
    <defs></defs>
    <g id="Page-1" stroke="none" stroke-width="1" fill="none" fill-rule="evenodd">
        <g id="Paquetes" transform="translate(-106.000000, -431.000000)" fill="#573312">
            <g transform="translate(-251.000000, 120.000000)" id="Paquete-Grupo-1">
                <g transform="translate(334.000000, 76.000000)">
                    <g id="Paquete-uno">
                        <g id="TEXTO" transform="translate(20.000000, 235.000000)">
                            <g id="Ubicación" transform="translate(3.000000, 0.000000)">
                                <g id="Group-2">
                                    <path d="M11.4941387,0 C5.15797607,0 0,4.85664907 0,10.8226555 C0,11.5017558 0.0660517907,12.1865871 0.2043172,12.8546496 C0.210479028,12.8941305 0.234525186,13.0132809 0.282692647,13.2169826 C0.456726717,13.9471675 0.715373206,14.6660316 1.05201942,15.3509337 C2.29039657,18.0962731 5.01354883,22.3130198 10.988944,26.8299773 C11.1392325,26.9433258 11.3198041,27 11.5,27 C11.6804965,27 11.8607675,26.9433258 12.011056,26.8299773 C17.9805899,22.3130198 20.709904,18.0962731 21.9479806,15.3509337 C22.2847019,14.6660316 22.5432733,13.9526863 22.7176079,13.2169826 C22.7657754,13.0132809 22.7898215,12.8941305 22.7956828,12.8546496 C22.928087,12.1865871 23,11.5017558 23,10.8226555 C22.9882775,4.85664907 17.8303014,0 11.4941387,0 Z M21.284722,12.6929246 C21.284722,12.7040888 21.2785004,12.7155392 21.2785004,12.7269896 C21.2725823,12.7558303 21.2542209,12.8416369 21.2239474,12.9733167 L21.2239474,12.9847671 C21.0722004,13.6260619 20.8475389,14.250038 20.5499631,14.8510417 C20.5440449,14.8569101 20.5440449,14.8683605 20.5378233,14.8739426 C19.4029834,17.4103528 16.9142569,21.2807365 11.5,25.5 C6.08574314,21.2807365 3.59701657,17.4103528 2.46187319,14.8739426 C2.45595505,14.8683605 2.45595505,14.8569101 2.44973343,14.8510417 C2.1583792,14.2559064 1.93371778,13.6260619 1.77605265,12.9847671 L1.77605265,12.9733167 C1.7395575,12.8416369 1.72741774,12.7558303 1.72119611,12.7269896 C1.72119611,12.7155392 1.71527798,12.7040888 1.71527798,12.6870563 C1.59372864,12.097503 1.53333333,11.5020098 1.53333333,10.9007198 C1.53333333,5.71947823 6.00660708,1.5 11.5,1.5 C16.9930894,1.5 21.4666667,5.71947823 21.4666667,10.9007198 C21.4666667,11.5075919 21.4059679,12.1089534 21.284722,12.6929246 Z" id="Fill-1"></path>
                                    <path d="M11.5520536,5.53567478 C8.49251027,5.53567478 6,8.02813372 6,11.0876141 C6,14.1470373 8.49251027,16.6395534 11.5520536,16.6395534 C14.6115398,16.6395534 17.1038786,14.1470373 17.1038786,11.0876141 C17.1038786,8.02813372 14.6115398,5.53567478 11.5520536,5.53567478 Z M11.5520536,15.4046712 C9.16935993,15.4046712 7.23485045,13.465514 7.23485045,11.0876141 C7.23485045,8.70942832 9.1738189,6.7704998 11.5520536,6.7704998 C13.9300597,6.7704998 15.8691996,8.70942832 15.8691996,11.0876141 C15.8691996,13.465514 13.9347473,15.4046712 11.5520536,15.4046712 Z" id="Fill-2"></path>
                                </g>
                            </g>
                        </g>
                    </g>
                </g>
            </g>
        </g>
    </g>
</svg>