<?xml version="1.0" encoding="UTF-8"?>
<svg width="18px" height="14px" viewBox="0 0 18 14" version="1.1" xmlns="http://www.w3.org/2000/svg" xmlns:xlink="http://www.w3.org/1999/xlink">
    <!-- Generator: Sketch 47 (45396) - http://www.bohemiancoding.com/sketch -->
    <title>Group 2</title>
    <desc>Created with Sketch.</desc>
    <defs></defs>
    <g id="Page-1" stroke="none" stroke-width="1" fill="none" fill-rule="evenodd">
        <g id="Home" transform="translate(-1140.000000, -27.000000)" fill="#9B9B9B">
            <g id="Menú">
                <g id="Esquina-Derecha" transform="translate(1140.000000, 26.000000)">
                    <g id="Campana">
                        <g id="Group-2" transform="translate(0.000000, 1.000000)">
                            <path d="M16.8616226,9.704503 C16.8616226,6.10265151 13.8492298,3.13692944 9.96027645,2.70400192 C10.2423077,2.42025195 10.4212595,2.01902587 10.4212595,1.56983243 C10.4212595,0.711792834 9.77670713,0.0161193821 8.98113446,0.0161193821 C8.18551652,0.0161193821 7.54078306,0.711792834 7.54078306,1.56983243 C7.54078306,2.01902587 7.71973485,2.42025195 8.0018114,2.70400192 C4.11299389,3.13692944 1.10060104,6.10265151 1.10060104,9.704503 C1.10060104,9.70528455 16.8616226,9.70528455 16.8616226,9.704503 Z" id="Fill-1"></path>
                            <path d="M17.0764734,11.5014323 L0.885750245,11.5014323 C0.396473507,11.5014323 0,11.9295728 0,12.4573605 C0,12.9849527 0.396473507,13.4130933 0.885750245,13.4130933 L17.0764734,13.4130933 C17.5657501,13.4130933 17.9622237,12.9849527 17.9622237,12.4573605 C17.9622237,11.9295728 17.5657501,11.5014323 17.0764734,11.5014323 Z" id="Fill-2"></path>
                        </g>
                    </g>
                </g>
            </g>
        </g>
    </g>
</svg>