<?xml version="1.0" encoding="UTF-8"?>
<svg width="30px" height="30px" viewBox="0 0 30 30" version="1.1" xmlns="http://www.w3.org/2000/svg" xmlns:xlink="http://www.w3.org/1999/xlink">
    <!-- Generator: Sketch 47 (45396) - http://www.bohemiancoding.com/sketch -->
    <title>Group 3</title>
    <desc>Created with Sketch.</desc>
    <defs></defs>
    <g id="Page-1" stroke="none" stroke-width="1" fill="none" fill-rule="evenodd">
        <g id="Paquetes" transform="translate(-100.000000, -468.000000)" fill="#573312">
            <g transform="translate(-251.000000, 120.000000)" id="Paquete-Grupo-1">
                <g transform="translate(334.000000, 76.000000)">
                    <g id="Paquete-uno">
                        <g id="TEXTO" transform="translate(17.000000, 235.000000)">
                            <g id="Mapa" transform="translate(0.000000, 37.000000)">
                                <g id="Group-3">
                                    <path d="M29.6649295,0.43632425 C29.5000165,0.334224538 29.2914502,0.328552332 29.1209939,0.42285276 L19.9565457,5.3860332 L10.7914046,0.42285276 C10.7830896,0.417180554 10.7754676,0.417180554 10.7699243,0.414344451 C10.7429007,0.400163935 10.7158772,0.392364652 10.6888536,0.38102024 C10.6722238,0.378184136 10.6562868,0.37251193 10.6424286,0.369675827 C10.6098617,0.364712647 10.5807594,0.361876544 10.5481926,0.35904044 C10.5343344,0.35904044 10.521169,0.356204337 10.5073108,0.35904044 C10.4775156,0.35904044 10.4477204,0.364712647 10.4179252,0.37251193 C10.4019883,0.375348033 10.3853584,0.378184136 10.3694214,0.383856343 C10.3638781,0.383856343 10.3611065,0.383856343 10.3555632,0.383856343 L0.37902262,3.7878891 C0.15174763,3.86517291 0,4.08142577 0,4.32745771 L0,28.7172354 C0,28.9001641 0.0866139443,29.0717483 0.230046636,29.1766841 C0.324975519,29.2490047 0.438613014,29.2851651 0.555022155,29.2851651 C0.614612549,29.2851651 0.671431297,29.2738206 0.73102169,29.254677 L10.5100825,25.9201287 L19.7452077,29.8084261 C19.7535226,29.8140983 19.7618375,29.8112622 19.7694596,29.8140983 C19.82905,29.8360781 19.891412,29.8523857 19.9565457,29.8523857 C20.0050495,29.8523857 20.0535533,29.8445864 20.10275,29.8304059 C20.118687,29.8247337 20.1325452,29.8169344 20.1484822,29.8112622 C20.1699624,29.8027539 20.1949073,29.7970817 20.2163875,29.7864463 L29.6379059,24.6814607 C29.8194488,24.5821971 29.9330863,24.387924 29.9330863,24.1801795 L29.9330863,0.924133985 C29.9330863,0.724188716 29.833307,0.539132988 29.6649295,0.43632425 Z M1.11004431,4.73514754 L9.97654056,1.71044357 L9.97654056,17.0211462 C9.7388719,17.0651058 9.50605362,17.1154466 9.27877863,17.1757138 C8.98082666,17.2565428 8.80482713,17.566387 8.88312613,17.8712681 C8.94825982,18.1229723 9.17276316,18.2924294 9.41943967,18.2924294 C9.46517184,18.2924294 9.51367565,18.2867572 9.56287237,18.2725767 C9.69521847,18.2371254 9.83865117,18.2201088 9.97654056,18.1896207 L9.97654056,24.9062219 L1.11004431,27.9302168 L1.11004431,4.73514754 Z M11.0865849,18.032217 C11.2653561,18.0152003 11.4358123,17.9932205 11.6201268,17.9903844 C11.9257008,17.9818761 12.1689127,17.7244998 12.1612907,17.4118194 C12.1557474,17.1012661 11.9097638,16.8545251 11.6090402,16.8545251 L11.595182,16.8545251 C11.4247257,16.8573612 11.2542695,16.8687057 11.0865849,16.8800501 L11.0865849,1.86572022 L19.4015235,6.36874293 L19.4015235,18.391693 C19.0065639,18.3753854 18.6032894,18.3257536 18.1806134,18.2420886 C17.8805827,18.1811124 17.5909456,18.3838937 17.5313552,18.6909019 C17.4745365,18.9986191 17.6692446,19.297828 17.9699683,19.3559681 C18.4626284,19.4523956 18.9386586,19.5027364 19.4015235,19.519044 L19.4015235,28.4371702 L11.0865849,24.9338739 L11.0865849,18.032217 Z M28.8265065,23.837011 L20.5115678,28.3407427 L20.5115678,19.4580678 C20.7166697,19.3637674 20.855252,19.1482235 20.8358505,18.9043187 C20.8199135,18.6909019 20.6868745,18.5221538 20.5115678,18.4363616 L20.5115678,6.36874293 L28.8265065,1.86572022 L28.8265065,23.837011 Z" id="Fill-1"></path>
                                    <path d="M25.1096044,14.6787119 C25.2021162,14.6969729 25.2955816,14.7068861 25.389047,14.7068861 C25.6942403,14.7068861 25.9813128,14.6051459 26.1005289,14.4402746 C26.4581773,13.940965 26.7452498,13.3743504 26.9569776,12.7607787 C27.0351834,12.5343416 26.7595557,12.3162523 26.346591,12.2734693 C25.9288577,12.2369471 25.5340139,12.3814704 25.4558081,12.6079075 C25.266016,13.1703482 25.0008793,13.6837449 24.6775652,14.1366192 C24.5240148,14.3505345 24.7185755,14.5931457 25.1096044,14.6787119 Z" id="Fill-5"></path>
                                    <path d="M7.48884166,18.4459457 C6.92336076,18.8463066 6.41296297,19.3464275 5.97347004,19.935077 C5.80646273,20.159702 5.83166032,20.4926754 6.03089712,20.680964 C6.11762372,20.7635467 6.22544599,20.8045077 6.33092429,20.8045077 C6.46570212,20.8045077 6.59872198,20.7404236 6.69013651,20.6162192 C7.06751444,20.112795 7.5052494,19.6820436 7.98810563,19.3418029 C8.2078521,19.1865474 8.27406903,18.8588592 8.13694724,18.6137537 C7.99923945,18.3660056 7.70858813,18.2913509 7.48884166,18.4459457 Z" id="Fill-6"></path>
                                    <path d="M5.43887398,20.8425698 C5.07133921,20.7465933 4.63523451,20.8383742 4.4679239,21.0476344 C3.7182261,21.9817011 3.53171591,22.7358773 3.52531605,22.7683939 C3.46771732,22.9981082 3.75022539,23.2089419 4.14975947,23.2393607 C4.18175876,23.2435564 4.21741512,23.2435564 4.25032869,23.2435564 C4.60689228,23.2435564 4.92139965,23.0919869 4.97534132,22.8832511 C4.97534132,22.8769575 5.14265193,22.2129888 5.79635184,21.4000728 C5.96457671,21.1887147 5.80366597,20.9411687 5.43887398,20.8425698 Z" id="Fill-7"></path>
                                    <path d="M22.7453716,18.3654591 C22.8154419,18.3654591 22.8878285,18.3472407 22.9555824,18.3074303 C23.5526274,17.9491366 24.0801813,17.443072 24.5231875,16.8027317 C24.6841754,16.5706167 24.6500089,16.2305413 24.4508009,16.0436348 C24.2515928,15.8594273 23.960309,15.895864 23.7993211,16.1279789 C23.4397043,16.6495628 23.0146499,17.058463 22.5328445,17.3459076 C22.3041027,17.4801834 22.2137641,17.8067638 22.33132,18.0732911 C22.4129722,18.2574986 22.5756973,18.3654591 22.7453716,18.3654591 Z" id="Fill-8"></path>
                                    <path d="M16.0472419,18.0155966 C15.78319,17.8647724 15.6279095,17.7577687 15.6166573,17.7536924 C15.5783997,17.7251581 15.5371416,17.7017192 15.4936331,17.6894902 C14.8455057,17.4632539 14.2041297,17.2838954 13.5912592,17.1565101 C13.2634448,17.0841553 12.9558844,17.3908991 12.9056245,17.8372572 C12.8561148,18.2825961 13.0819091,18.7004199 13.4097236,18.7686984 C13.9640825,18.8838547 14.5439464,19.0428316 15.1358128,19.2466481 C15.2153284,19.2976022 15.3706089,19.3974723 15.5844009,19.5207812 C15.6601658,19.5646018 15.7396814,19.5849834 15.8154463,19.5849834 C16.0502425,19.5849834 16.2730362,19.3933959 16.3698053,19.0825758 C16.4988306,18.664752 16.3518017,18.1868024 16.0472419,18.0155966 Z" id="Fill-9"></path>
                                    <path d="M26.3228452,11.0452649 C26.33408,11.0452649 26.3474213,11.0483131 26.3586561,11.0483131 C26.6521649,11.0483131 26.898628,10.7983626 26.9182889,10.4767801 C26.9540997,9.89076829 26.9702497,9.27122656 26.9702497,8.63415782 C26.9702497,8.42307164 26.9702497,8.20893729 26.9646324,7.98870659 C26.959015,7.65188316 26.6900823,7.3958364 26.394467,7.38974004 C26.084106,7.3958364 25.8376429,7.67550653 25.8425582,8.01232995 C25.8453669,8.22341613 25.8481756,8.43221617 25.8481756,8.63415782 C25.8481756,9.24455502 25.8320256,9.83666317 25.7990234,10.3998137 C25.777256,10.7328269 26.0131865,11.0246897 26.3228452,11.0452649 Z" id="Fill-10"></path>
                                    <path d="M4.86249661,15.7479341 C4.97680916,15.8669183 5.12849311,15.9264104 5.27724598,15.9264104 C5.42892993,15.9264104 5.57768279,15.8669183 5.69272811,15.7479341 L6.45114788,14.9615707 L7.20956765,15.7479341 C7.3238802,15.8669183 7.47263306,15.9264104 7.62138593,15.9264104 C7.77306988,15.9264104 7.92255552,15.8669183 8.03686806,15.7479341 C8.26549315,15.509203 8.26549315,15.1247926 8.03686806,14.8868242 L7.27844829,14.0974099 L8.03686806,13.3079956 C8.26549315,13.0692645 8.26549315,12.6848541 8.03686806,12.4468857 C7.8075102,12.2081546 7.43819274,12.2081546 7.20956765,12.4468857 L6.45114788,13.2332491 L5.69272811,12.4468857 C5.46337025,12.2081546 5.0911217,12.2081546 4.86249661,12.4468857 C4.63313875,12.6848541 4.63313875,13.0692645 4.86249661,13.3079956 L5.62091638,14.0974099 L4.86249661,14.8868242 C4.63313875,15.1247926 4.63313875,15.509203 4.86249661,15.7479341 Z" id="Fill-11"></path>
                                </g>
                            </g>
                        </g>
                    </g>
                </g>
            </g>
        </g>
    </g>
</svg>