<svg width="24" height="24" viewBox="0 0 24 24" xmlns="http://www.w3.org/2000/svg"><title>Fill 3</title><path d="M21.242 0h-7.446c-.744 0-1.434.277-1.93.805L.806 11.875a2.775 2.775 0 0 0 0 3.912l7.392 7.408a2.72 2.72 0 0 0 1.958.805 2.72 2.72 0 0 0 1.958-.805L23.173 12.07A2.653 2.653 0 0 0 24 10.156v-7.38C24 1.248 22.759 0 21.242 0zm1.655 10.155c0 .416-.165.832-.496 1.11L11.314 22.418a1.62 1.62 0 0 1-1.158.472c-.442 0-.855-.167-1.159-.472L1.58 15.01c-.634-.638-.634-1.692 0-2.358l11.059-11.07a1.62 1.62 0 0 1 1.158-.472h7.446c.91 0 1.655.749 1.655 1.665v7.38z" fill="#573312" fill-rule="evenodd"/></svg>