<svg width="23" height="27" viewBox="0 0 23 27" xmlns="http://www.w3.org/2000/svg"><title>Group 2</title><g fill="#573312" fill-rule="evenodd"><path d="M11.494 0C5.158 0 0 4.857 0 10.823c0 .679.066 1.364.204 2.032a10.22 10.22 0 0 0 .848 2.496c1.238 2.745 3.962 6.962 9.937 11.479a.848.848 0 0 0 1.022 0c5.97-4.517 8.699-8.734 9.937-11.48a10.123 10.123 0 0 0 .848-2.495A10.49 10.49 0 0 0 23 10.823C22.988 4.857 17.83 0 11.494 0zm9.79 12.693c0 .011-.005.023-.005.034l-.055.246v.012a8.729 8.729 0 0 1-.674 1.866c-.006.006-.006.017-.012.023C19.403 17.41 16.914 21.28 11.5 25.5c-5.414-4.22-7.903-8.09-9.038-10.626-.006-.006-.006-.017-.012-.023a9.306 9.306 0 0 1-.674-1.866v-.012c-.036-.131-.049-.217-.055-.246 0-.011-.006-.023-.006-.04a8.824 8.824 0 0 1-.182-1.786C1.533 5.719 6.007 1.5 11.5 1.5s9.967 4.22 9.967 9.4c0 .608-.061 1.209-.182 1.793z"/><path d="M11.552 5.536A5.56 5.56 0 0 0 6 11.088a5.56 5.56 0 0 0 5.552 5.552 5.56 5.56 0 0 0 5.552-5.552 5.56 5.56 0 0 0-5.552-5.552zm0 9.869a4.322 4.322 0 0 1-4.317-4.317 4.325 4.325 0 0 1 4.317-4.318 4.325 4.325 0 0 1 4.317 4.318 4.322 4.322 0 0 1-4.317 4.317z"/></g></svg>