<svg width="30" height="30" viewBox="0 0 30 30" xmlns="http://www.w3.org/2000/svg"><title>Group 3</title><g fill="#573312" fill-rule="evenodd"><path d="M29.665.436a.54.54 0 0 0-.544-.013l-9.164 4.963L10.79.423c-.008-.006-.016-.006-.021-.009-.027-.014-.054-.022-.081-.033L10.642.37a1.419 1.419 0 0 0-.094-.011c-.014 0-.027-.003-.04 0-.03 0-.06.006-.09.014a.284.284 0 0 0-.049.01h-.013L.379 3.789a.565.565 0 0 0-.379.54v24.39a.57.57 0 0 0 .23.459.533.533 0 0 0 .501.078l9.78-3.335 9.234 3.888c.009.006.017.003.024.006.06.022.122.038.188.038a.526.526 0 0 0 .146-.022c.016-.005.03-.013.045-.019.022-.008.047-.014.068-.025l9.422-5.105a.573.573 0 0 0 .295-.5V.923c0-.2-.1-.385-.268-.488zM1.11 4.736L9.977 1.71v15.311c-.238.044-.47.094-.698.155a.57.57 0 0 0 .14 1.116.517.517 0 0 0 .144-.02c.132-.035.276-.052.414-.082v6.716L1.11 27.93V4.735zm9.977 13.296c.178-.017.349-.039.533-.042a.561.561 0 0 0 .541-.578.56.56 0 0 0-.552-.557h-.014c-.17.002-.34.014-.508.025V1.866l8.315 4.503v12.023a7.952 7.952 0 0 1-1.221-.15.555.555 0 0 0-.65.449.567.567 0 0 0 .439.665 9.11 9.11 0 0 0 1.432.163v8.918l-8.315-3.503v-6.902zm17.74 5.805l-8.315 4.504v-8.883a.56.56 0 0 0 .324-.554.568.568 0 0 0-.324-.468V6.37l8.315-4.503v21.971z"/><path d="M25.11 14.679c.092.018.186.028.279.028.305 0 .592-.102.712-.267a6.565 6.565 0 0 0 .856-1.68c.078-.226-.197-.444-.61-.487-.418-.036-.813.108-.891.335a5.844 5.844 0 0 1-.778 1.529c-.154.214.04.456.432.542zM7.489 18.446a6.8 6.8 0 0 0-1.516 1.49.576.576 0 0 0 .058.745.436.436 0 0 0 .3.124.445.445 0 0 0 .36-.189 5.829 5.829 0 0 1 1.297-1.274c.22-.155.286-.483.149-.728-.138-.248-.428-.323-.648-.168zm-2.05 2.397c-.368-.096-.804-.005-.971.205-.75.934-.936 1.688-.943 1.72-.057.23.225.44.625.471a.663.663 0 0 0 .1.005c.357 0 .671-.152.725-.36 0-.007.168-.671.821-1.484.169-.211.008-.459-.357-.557zm17.306-2.478a.41.41 0 0 0 .21-.058c.598-.358 1.125-.864 1.568-1.504a.602.602 0 0 0-.072-.76c-.2-.184-.49-.147-.652.085-.36.522-.784.93-1.266 1.218-.229.134-.32.46-.202.727a.462.462 0 0 0 .414.292zm-6.698-.349c-.264-.151-.42-.258-.43-.262a.383.383 0 0 0-.123-.065 15.194 15.194 0 0 0-1.903-.532c-.328-.073-.635.234-.685.68-.05.446.176.863.504.932a14.18 14.18 0 0 1 1.726.478c.08.05.235.15.448.274a.461.461 0 0 0 .231.064c.235 0 .458-.192.555-.502.129-.418-.018-.896-.323-1.067zm10.276-6.971l.036.003c.293 0 .54-.25.56-.571.035-.586.051-1.206.051-1.843 0-.21 0-.425-.005-.645a.602.602 0 0 0-.57-.6c-.31.007-.557.287-.552.623.002.211.005.42.005.622 0 .61-.016 1.203-.049 1.766-.022.333.214.625.524.645zM4.862 15.748a.576.576 0 0 0 .83 0l.76-.786.758.786a.57.57 0 0 0 .827 0 .626.626 0 0 0 0-.861l-.759-.79.759-.789a.626.626 0 0 0 0-.861.567.567 0 0 0-.827 0l-.759.786-.758-.786a.57.57 0 0 0-.83 0 .625.625 0 0 0 0 .861l.758.79-.759.789a.625.625 0 0 0 0 .86z"/></g></svg>